<svg xmlns="http://www.w3.org/2000/svg" xmlns:xlink="http://www.w3.org/1999/xlink" width="500" zoomAndPan="magnify" viewBox="0 0 375 374.999991" height="500" preserveAspectRatio="xMidYMid meet" version="1.0"><defs><clipPath id="2c2c45cd62"><path d="M 72.625 60.390625 L 302.125 60.390625 L 302.125 314.640625 L 72.625 314.640625 Z M 72.625 60.390625 " clip-rule="nonzero"/></clipPath></defs><g clip-path="url(#2c2c45cd62)"><path fill="#f79829" d="M 145.832031 243.648438 C 161.214844 229.132812 165.148438 213.171875 182.207031 212.710938 C 199.265625 213.171875 203.195312 229.074219 218.578125 243.648438 C 241.1875 264.925781 236.851562 283.375 223.03125 287.25 C 209.152344 291.066406 197.414062 275.453125 182.378906 275.796875 L 182.089844 275.796875 C 167.054688 275.507812 155.316406 291.121094 141.4375 287.304688 C 127.558594 283.429688 123.28125 264.984375 145.832031 243.648438 Z M 143 234.566406 C 151.324219 228.496094 150.457031 213.054688 141.03125 200.101562 C 131.605469 187.148438 117.207031 181.597656 108.824219 187.613281 C 100.496094 193.742188 101.421875 209.183594 110.789062 222.136719 C 120.214844 235.089844 134.671875 240.699219 143 234.566406 Z M 253.5625 222.136719 C 262.988281 209.183594 263.855469 193.742188 255.472656 187.671875 C 247.144531 181.597656 232.6875 187.148438 223.261719 200.160156 C 213.835938 213.113281 212.96875 228.554688 221.296875 234.625 C 229.738281 240.640625 244.136719 235.089844 253.5625 222.136719 Z M 163.699219 201.085938 C 174.398438 199.179688 180.703125 184.144531 177.753906 167.488281 C 174.804688 150.835938 163.699219 138.921875 152.945312 140.832031 C 142.246094 142.738281 135.945312 157.773438 138.894531 174.429688 C 141.898438 191.082031 153.003906 202.996094 163.699219 201.085938 Z M 225.460938 174.429688 C 228.410156 157.773438 222.105469 142.738281 211.410156 140.832031 C 200.710938 138.921875 189.609375 150.835938 186.601562 167.488281 C 183.652344 184.144531 189.953125 199.179688 200.652344 201.085938 C 211.410156 202.996094 222.511719 191.082031 225.460938 174.429688 Z M 73.203125 176.453125 C 72.796875 175.238281 72.625 173.964844 72.625 172.691406 C 72.625 166.5625 77.019531 161.53125 82.800781 160.433594 C 83.554688 160.316406 84.304688 160.203125 85.113281 160.203125 C 90.898438 160.203125 95.753906 164.136719 97.140625 169.453125 C 97.429688 170.496094 97.546875 171.535156 97.546875 172.636719 C 97.546875 178.535156 93.441406 183.507812 87.890625 184.777344 C 87.023438 184.953125 86.039062 185.066406 85.113281 185.066406 C 79.503906 185.125 74.820312 181.484375 73.203125 176.453125 Z M 88.179688 180.441406 C 88.179688 178.707031 86.792969 177.320312 85.054688 177.320312 C 83.320312 177.320312 81.933594 178.707031 81.933594 180.441406 C 81.933594 182.175781 83.320312 183.566406 85.054688 183.566406 C 86.792969 183.566406 88.179688 182.175781 88.179688 180.441406 Z M 78.867188 169.570312 C 78.867188 173.039062 81.644531 175.816406 85.113281 175.816406 C 88.527344 175.816406 91.359375 173.039062 91.359375 169.570312 C 91.359375 166.160156 88.585938 163.324219 85.113281 163.324219 C 81.644531 163.324219 78.867188 166.101562 78.867188 169.570312 Z M 103.328125 163.554688 C 103.097656 162.921875 102.984375 162.226562 102.984375 161.476562 C 102.984375 158.121094 105.355469 155.402344 108.535156 154.824219 C 108.9375 154.765625 109.34375 154.707031 109.804688 154.707031 C 112.929688 154.707031 115.589844 156.847656 116.398438 159.738281 C 116.570312 160.316406 116.628906 160.894531 116.628906 161.476562 C 116.628906 164.714844 114.375 167.429688 111.367188 168.125 C 110.90625 168.242188 110.382812 168.296875 109.863281 168.296875 C 106.742188 168.242188 104.195312 166.273438 103.328125 163.554688 Z M 111.484375 165.695312 C 111.484375 164.769531 110.730469 164.019531 109.804688 164.019531 C 108.882812 164.019531 108.128906 164.769531 108.128906 165.695312 C 108.128906 166.621094 108.882812 167.375 109.804688 167.375 C 110.730469 167.375 111.484375 166.621094 111.484375 165.695312 Z M 106.394531 159.738281 C 106.394531 161.589844 107.898438 163.152344 109.804688 163.152344 C 111.65625 163.152344 113.21875 161.648438 113.21875 159.738281 C 113.21875 157.890625 111.714844 156.328125 109.804688 156.328125 C 107.898438 156.386719 106.394531 157.890625 106.394531 159.738281 Z M 102.519531 217.914062 C 102.695312 218.492188 102.75 219.128906 102.75 219.820312 C 102.75 223.347656 100.324219 226.242188 97.027344 226.992188 C 96.507812 227.109375 95.929688 227.164062 95.351562 227.164062 C 92.054688 227.164062 89.277344 225.027344 88.351562 222.019531 C 88.121094 221.324219 88.003906 220.574219 88.003906 219.765625 C 88.003906 216.179688 90.609375 213.171875 94.019531 212.535156 C 94.480469 212.476562 94.886719 212.421875 95.351562 212.421875 C 98.820312 212.421875 101.710938 214.734375 102.519531 217.914062 Z M 97.257812 224.390625 C 97.257812 223.347656 96.449219 222.539062 95.40625 222.539062 C 94.367188 222.539062 93.558594 223.347656 93.558594 224.390625 C 93.558594 225.429688 94.367188 226.242188 95.40625 226.242188 C 96.449219 226.242188 97.257812 225.429688 97.257812 224.390625 Z M 99.109375 217.972656 C 99.109375 215.949219 97.429688 214.269531 95.40625 214.269531 C 93.382812 214.269531 91.707031 215.949219 91.707031 217.972656 C 91.707031 219.996094 93.382812 221.671875 95.40625 221.671875 C 97.429688 221.613281 99.109375 219.996094 99.109375 217.972656 Z M 119.925781 172.691406 C 119.925781 169.917969 121.890625 167.664062 124.550781 167.140625 C 124.898438 167.082031 125.246094 167.027344 125.59375 167.027344 C 128.195312 167.027344 130.394531 168.820312 131.027344 171.246094 C 131.144531 171.710938 131.203125 172.171875 131.203125 172.691406 C 131.203125 175.351562 129.351562 177.609375 126.808594 178.1875 C 126.402344 178.300781 125.996094 178.300781 125.535156 178.300781 C 122.992188 178.300781 120.851562 176.625 120.15625 174.371094 C 120.042969 173.851562 119.925781 173.269531 119.925781 172.691406 Z M 126.980469 176.21875 C 126.980469 175.46875 126.34375 174.832031 125.59375 174.832031 C 124.839844 174.832031 124.207031 175.46875 124.207031 176.21875 C 124.207031 176.972656 124.839844 177.609375 125.59375 177.609375 C 126.34375 177.609375 126.980469 176.972656 126.980469 176.21875 Z M 122.757812 171.246094 C 122.757812 172.808594 124.03125 174.082031 125.59375 174.082031 C 127.15625 174.082031 128.425781 172.808594 128.425781 171.246094 C 128.425781 169.6875 127.15625 168.414062 125.59375 168.414062 C 124.03125 168.414062 122.757812 169.6875 122.757812 171.246094 Z M 121.082031 144.414062 C 120.910156 143.835938 120.792969 143.203125 120.792969 142.507812 C 120.792969 139.441406 122.992188 136.957031 125.882812 136.378906 C 126.230469 136.320312 126.632812 136.261719 127.039062 136.261719 C 129.929688 136.261719 132.359375 138.226562 133.054688 140.886719 C 133.167969 141.410156 133.285156 141.929688 133.285156 142.507812 C 133.285156 145.457031 131.203125 147.941406 128.484375 148.578125 C 128.023438 148.695312 127.558594 148.753906 127.097656 148.753906 C 124.261719 148.695312 121.890625 146.902344 121.082031 144.414062 Z M 128.601562 146.382812 C 128.601562 145.515625 127.90625 144.820312 127.039062 144.820312 C 126.171875 144.820312 125.476562 145.515625 125.476562 146.382812 C 125.476562 147.25 126.171875 147.941406 127.039062 147.941406 C 127.90625 147.941406 128.601562 147.25 128.601562 146.382812 Z M 123.917969 140.945312 C 123.917969 142.679688 125.304688 144.070312 127.039062 144.070312 C 128.773438 144.070312 130.160156 142.679688 130.160156 140.945312 C 130.160156 139.210938 128.773438 137.824219 127.039062 137.824219 C 125.304688 137.824219 123.917969 139.210938 123.917969 140.945312 Z M 170.582031 112.554688 C 177.464844 118.164062 178.621094 128.746094 179.949219 150.199219 C 181.222656 128.859375 182.4375 118.21875 189.203125 112.609375 C 193.945312 108.679688 201.460938 107.234375 213.664062 106.191406 C 216.960938 105.902344 220.601562 105.671875 224.652344 105.441406 C 217.015625 104.976562 210.773438 104.515625 205.625 103.820312 C 202.5625 103.070312 199.496094 102.433594 196.429688 101.914062 C 183.074219 97.75 181.570312 88.035156 179.949219 60.683594 C 178.332031 87.570312 176.886719 97.402344 164.164062 101.683594 C 160.289062 102.261719 156.414062 103.011719 152.65625 103.996094 C 147.855469 104.574219 142.074219 104.976562 135.25 105.382812 C 139.007812 105.613281 142.480469 105.84375 145.601562 106.078125 C 158.035156 107.175781 165.726562 108.621094 170.582031 112.554688 Z M 164.222656 113.363281 C 158.785156 111.164062 150.285156 110.296875 136.925781 109.488281 C 124.609375 114.867188 113.507812 122.382812 103.964844 131.984375 C 96.96875 138.980469 91.011719 146.84375 86.214844 155.402344 C 90.261719 155.691406 94.019531 157.3125 96.851562 159.972656 C 110.90625 135.625 135.421875 118.046875 164.222656 113.363281 Z M 195.390625 113.476562 C 210.136719 115.964844 223.726562 121.804688 235.347656 130.25 C 240.785156 129.207031 244.425781 127.761719 246.796875 125.390625 C 246.972656 125.21875 247.144531 125.042969 247.320312 124.871094 C 239.742188 118.625 231.359375 113.476562 222.28125 109.546875 C 209.09375 110.355469 200.710938 111.222656 195.390625 113.476562 Z M 268.136719 147.769531 C 265.648438 150.601562 264.203125 155.054688 263.277344 161.878906 C 270.679688 175.46875 274.902344 191.023438 274.902344 207.503906 C 274.902344 260.128906 232.109375 302.917969 179.488281 302.917969 C 126.867188 302.917969 84.074219 260.128906 84.074219 207.503906 C 84.074219 201.492188 84.652344 195.648438 85.691406 189.984375 C 85.460938 189.984375 85.230469 189.984375 85.054688 189.984375 C 81.183594 189.984375 77.597656 188.710938 74.648438 186.515625 C 73.261719 193.394531 72.625 200.390625 72.625 207.503906 C 72.625 221.902344 75.457031 235.957031 81.007812 249.082031 C 86.386719 261.804688 94.078125 273.253906 103.90625 283.027344 C 113.738281 292.855469 125.128906 300.546875 137.851562 305.925781 C 151.035156 311.476562 165.03125 314.3125 179.429688 314.3125 C 193.828125 314.3125 207.878906 311.476562 221.007812 305.925781 C 233.730469 300.546875 245.179688 292.855469 254.953125 283.027344 C 264.78125 273.195312 272.472656 261.804688 277.851562 249.082031 C 283.402344 235.898438 286.234375 221.902344 286.234375 207.503906 C 286.234375 193.105469 283.402344 179.054688 277.851562 165.925781 C 275.308594 159.507812 272.011719 153.4375 268.136719 147.769531 Z M 257.667969 181.019531 C 260.097656 140.714844 262.066406 138.75 302.371094 136.320312 C 262.066406 133.890625 260.097656 131.925781 257.667969 91.621094 C 255.242188 131.925781 253.273438 133.890625 212.96875 136.320312 C 253.273438 138.75 255.242188 140.714844 257.667969 181.019531 Z M 257.667969 181.019531 " fill-opacity="1" fill-rule="nonzero"/></g></svg>